<mxfile host="app.diagrams.net" modified="2021-07-08T02:31:00.475Z" agent="5.0 (Macintosh; Intel Mac OS X 10_15_7) AppleWebKit/537.36 (KHTML, like Gecko) Chrome/91.0.4472.114 Safari/537.36" etag="o3zgkiXkNnWY3KdS48mC" version="14.8.4" type="github">
  <diagram id="j4X7_0BhkkpB89f-EDD_" name="Page-1">
    <mxGraphModel dx="946" dy="553" grid="1" gridSize="10" guides="1" tooltips="1" connect="1" arrows="1" fold="1" page="1" pageScale="1" pageWidth="827" pageHeight="1169" math="0" shadow="0">
      <root>
        <mxCell id="0" />
        <mxCell id="1" parent="0" />
        <mxCell id="z-b_h30887YkjSEd3DId-1" value="业务侧" style="rounded=0;whiteSpace=wrap;html=1;" vertex="1" parent="1">
          <mxGeometry x="100" y="70" width="260" height="40" as="geometry" />
        </mxCell>
        <mxCell id="z-b_h30887YkjSEd3DId-2" value="研发侧" style="rounded=0;whiteSpace=wrap;html=1;" vertex="1" parent="1">
          <mxGeometry x="360" y="70" width="260" height="40" as="geometry" />
        </mxCell>
        <mxCell id="z-b_h30887YkjSEd3DId-3" value="" style="rounded=0;whiteSpace=wrap;html=1;" vertex="1" parent="1">
          <mxGeometry x="100" y="110" width="260" height="410" as="geometry" />
        </mxCell>
        <mxCell id="z-b_h30887YkjSEd3DId-5" value="" style="rounded=0;whiteSpace=wrap;html=1;" vertex="1" parent="1">
          <mxGeometry x="360" y="110" width="260" height="410" as="geometry" />
        </mxCell>
        <mxCell id="z-b_h30887YkjSEd3DId-11" style="edgeStyle=orthogonalEdgeStyle;rounded=0;orthogonalLoop=1;jettySize=auto;html=1;entryX=0;entryY=0.5;entryDx=0;entryDy=0;" edge="1" parent="1" source="z-b_h30887YkjSEd3DId-6">
          <mxGeometry relative="1" as="geometry">
            <mxPoint x="430" y="155" as="targetPoint" />
          </mxGeometry>
        </mxCell>
        <mxCell id="z-b_h30887YkjSEd3DId-6" value="申请人与上级沟通发起审批" style="rounded=1;whiteSpace=wrap;html=1;" vertex="1" parent="1">
          <mxGeometry x="180" y="130" width="100" height="50" as="geometry" />
        </mxCell>
        <mxCell id="z-b_h30887YkjSEd3DId-15" style="edgeStyle=orthogonalEdgeStyle;rounded=0;orthogonalLoop=1;jettySize=auto;html=1;exitX=0;exitY=0.75;exitDx=0;exitDy=0;entryX=0.5;entryY=1;entryDx=0;entryDy=0;" edge="1" parent="1" source="z-b_h30887YkjSEd3DId-19" target="z-b_h30887YkjSEd3DId-6">
          <mxGeometry relative="1" as="geometry">
            <mxPoint x="430" y="170" as="sourcePoint" />
          </mxGeometry>
        </mxCell>
        <mxCell id="z-b_h30887YkjSEd3DId-16" value="不通过" style="edgeLabel;html=1;align=center;verticalAlign=middle;resizable=0;points=[];" vertex="1" connectable="0" parent="z-b_h30887YkjSEd3DId-15">
          <mxGeometry x="0.1692" y="1" relative="1" as="geometry">
            <mxPoint as="offset" />
          </mxGeometry>
        </mxCell>
        <mxCell id="z-b_h30887YkjSEd3DId-22" style="edgeStyle=orthogonalEdgeStyle;rounded=0;orthogonalLoop=1;jettySize=auto;html=1;exitX=0.5;exitY=1;exitDx=0;exitDy=0;entryX=0.5;entryY=0;entryDx=0;entryDy=0;" edge="1" parent="1" source="z-b_h30887YkjSEd3DId-19" target="z-b_h30887YkjSEd3DId-21">
          <mxGeometry relative="1" as="geometry" />
        </mxCell>
        <mxCell id="z-b_h30887YkjSEd3DId-23" value="通过" style="edgeLabel;html=1;align=center;verticalAlign=middle;resizable=0;points=[];" vertex="1" connectable="0" parent="z-b_h30887YkjSEd3DId-22">
          <mxGeometry x="-0.44" relative="1" as="geometry">
            <mxPoint as="offset" />
          </mxGeometry>
        </mxCell>
        <mxCell id="z-b_h30887YkjSEd3DId-19" value="安全团队判断风险并审批" style="rounded=0;whiteSpace=wrap;html=1;" vertex="1" parent="1">
          <mxGeometry x="430" y="130" width="110" height="50" as="geometry" />
        </mxCell>
        <mxCell id="z-b_h30887YkjSEd3DId-24" style="edgeStyle=orthogonalEdgeStyle;rounded=0;orthogonalLoop=1;jettySize=auto;html=1;exitX=0;exitY=0.5;exitDx=0;exitDy=0;entryX=0;entryY=0.5;entryDx=0;entryDy=0;" edge="1" parent="1" source="z-b_h30887YkjSEd3DId-21" target="z-b_h30887YkjSEd3DId-6">
          <mxGeometry relative="1" as="geometry" />
        </mxCell>
        <mxCell id="z-b_h30887YkjSEd3DId-25" value="不通过" style="edgeLabel;html=1;align=center;verticalAlign=middle;resizable=0;points=[];" vertex="1" connectable="0" parent="z-b_h30887YkjSEd3DId-24">
          <mxGeometry x="0.1" relative="1" as="geometry">
            <mxPoint as="offset" />
          </mxGeometry>
        </mxCell>
        <mxCell id="z-b_h30887YkjSEd3DId-26" style="edgeStyle=orthogonalEdgeStyle;rounded=0;orthogonalLoop=1;jettySize=auto;html=1;exitX=1;exitY=0.5;exitDx=0;exitDy=0;entryX=0;entryY=0.5;entryDx=0;entryDy=0;" edge="1" parent="1" source="z-b_h30887YkjSEd3DId-21" target="z-b_h30887YkjSEd3DId-27">
          <mxGeometry relative="1" as="geometry">
            <mxPoint x="390" y="275" as="targetPoint" />
          </mxGeometry>
        </mxCell>
        <mxCell id="z-b_h30887YkjSEd3DId-21" value="业务leader逐级审批&lt;br&gt;（MC-1）" style="rounded=0;whiteSpace=wrap;html=1;" vertex="1" parent="1">
          <mxGeometry x="180" y="300" width="100" height="50" as="geometry" />
        </mxCell>
        <mxCell id="z-b_h30887YkjSEd3DId-36" style="edgeStyle=orthogonalEdgeStyle;rounded=0;orthogonalLoop=1;jettySize=auto;html=1;exitX=0.5;exitY=1;exitDx=0;exitDy=0;entryX=0.5;entryY=0;entryDx=0;entryDy=0;" edge="1" parent="1" source="z-b_h30887YkjSEd3DId-27" target="z-b_h30887YkjSEd3DId-35">
          <mxGeometry relative="1" as="geometry" />
        </mxCell>
        <mxCell id="z-b_h30887YkjSEd3DId-27" value="运营后台数据权限开通" style="rounded=0;whiteSpace=wrap;html=1;" vertex="1" parent="1">
          <mxGeometry x="435" y="300" width="110" height="50" as="geometry" />
        </mxCell>
        <mxCell id="z-b_h30887YkjSEd3DId-29" value="运营后台数据权限分级中风险权限审批" style="rounded=0;whiteSpace=wrap;html=1;" vertex="1" parent="1">
          <mxGeometry x="100" y="30" width="520" height="40" as="geometry" />
        </mxCell>
        <mxCell id="z-b_h30887YkjSEd3DId-38" style="edgeStyle=orthogonalEdgeStyle;rounded=0;orthogonalLoop=1;jettySize=auto;html=1;exitX=0.5;exitY=1;exitDx=0;exitDy=0;entryX=0.5;entryY=0;entryDx=0;entryDy=0;" edge="1" parent="1" source="z-b_h30887YkjSEd3DId-35" target="z-b_h30887YkjSEd3DId-37">
          <mxGeometry relative="1" as="geometry" />
        </mxCell>
        <mxCell id="z-b_h30887YkjSEd3DId-35" value="抄送相关方&lt;br&gt;（杜炯，王铮，申请人逐级领导）" style="rounded=0;whiteSpace=wrap;html=1;" vertex="1" parent="1">
          <mxGeometry x="435" y="380" width="115" height="50" as="geometry" />
        </mxCell>
        <mxCell id="z-b_h30887YkjSEd3DId-37" value="流程结束" style="rounded=1;whiteSpace=wrap;html=1;" vertex="1" parent="1">
          <mxGeometry x="433" y="450" width="117" height="40" as="geometry" />
        </mxCell>
      </root>
    </mxGraphModel>
  </diagram>
</mxfile>
